<svg fill="none" height="16" viewBox="0 0 16 16" width="16" xmlns="http://www.w3.org/2000/svg">
    <g clip-path="url(#clip0_2868_30505)">
        <path
            d="M7.08547 0.0516041C3.47685 0.454167 0.546005 3.31929 0.0714111 6.9191C-0.601026 12.0204 3.56947 16.3602 8.62107 15.9769C10.4793 15.8359 12.2187 15.0054 13.5816 13.7344L13.6986 13.6253C13.8333 13.4997 13.8406 13.2888 13.7151 13.1542L13.2602 12.6664C13.1347 12.5318 12.9238 12.5244 12.7891 12.65L12.5453 12.8774C11.0293 14.2909 8.94825 14.9269 6.84888 14.5693C3.87341 14.0626 1.58604 11.5364 1.35369 8.52707C1.04647 4.5476 4.25647 1.22214 8.19763 1.33667C11.8316 1.44232 14.6667 4.54342 14.6667 8.17895V8.66714C14.6667 9.44632 13.9952 10.0713 13.2004 9.99401C12.5077 9.92663 12 9.30404 12 8.60804V5.66717C12 5.48304 11.8508 5.33382 11.6667 5.33382H11C10.8662 5.33382 10.7525 5.41382 10.6994 5.52767C10.0287 4.79601 9.0685 4.33382 8 4.33382C5.97819 4.33382 4.33335 5.97867 4.33335 8.00048C4.33335 10.0223 5.97819 11.6672 8 11.6672C9.2736 11.6672 10.3966 11.0138 11.0541 10.0253C11.5492 10.8526 12.469 11.3979 13.516 11.3277C14.9317 11.2329 16 9.99189 16 8.57301V8.00048C16 3.28804 11.9041 -0.485958 7.08547 0.0516041ZM8 10.3338C6.71354 10.3338 5.66666 9.28695 5.66666 8.00048C5.66666 6.71401 6.71354 5.66714 8 5.66714C9.28647 5.66714 10.3333 6.71401 10.3333 8.00048C10.3333 9.28695 9.28647 10.3338 8 10.3338Z"
            fill="#808080" />
    </g>
    <defs>
        <clipPath id="clip0_2868_30505">
            <rect fill="white" height="16" width="16" />
        </clipPath>
    </defs>
</svg>
