<svg fill="none" height="60" viewBox="0 0 60 60" width="60" xmlns="http://www.w3.org/2000/svg">
    <path d="M59 30C59 46.0163 46.0163 59 30 59C13.9837 59 1 46.0163 1 30C1 13.9837 13.9837 1 30 1C46.0163 1 59 13.9837 59 30Z" stroke="#4F8CF6" stroke-width="2" />
    <path d="M42.3156 34.6875L36.625 29.0625L42.3156 23.4375L43.6562 24.7594L39.3063 29.0625L43.6562 33.3656L42.3156 34.6875Z" fill="#4F8CF6" />
    <path
        d="M36.625 43.125H34.75V38.4375C34.75 37.1943 34.2561 36.002 33.3771 35.1229C32.498 34.2439 31.3057 33.75 30.0625 33.75H24.4375C23.1943 33.75 22.002 34.2439 21.1229 35.1229C20.2439 36.002 19.75 37.1943 19.75 38.4375V43.125H17.875V38.4375C17.875 36.697 18.5664 35.0278 19.7971 33.7971C21.0278 32.5664 22.697 31.875 24.4375 31.875H30.0625C31.803 31.875 33.4722 32.5664 34.7029 33.7971C35.9336 35.0278 36.625 36.697 36.625 38.4375V43.125Z"
        fill="#4F8CF6" />
    <path
        d="M27.25 18.75C28.1771 18.75 29.0834 19.0249 29.8542 19.54C30.6251 20.0551 31.2259 20.7871 31.5807 21.6437C31.9355 22.5002 32.0283 23.4427 31.8474 24.352C31.6666 25.2613 31.2201 26.0965 30.5646 26.7521C29.909 27.4076 29.0738 27.8541 28.1645 28.0349C27.2552 28.2158 26.3127 28.123 25.4562 27.7682C24.5996 27.4134 23.8676 26.8126 23.3525 26.0417C22.8374 25.2709 22.5625 24.3646 22.5625 23.4375C22.5625 22.1943 23.0564 21.002 23.9354 20.1229C24.8145 19.2439 26.0068 18.75 27.25 18.75ZM27.25 16.875C25.9521 16.875 24.6833 17.2599 23.6041 17.981C22.5249 18.7021 21.6837 19.727 21.187 20.9261C20.6903 22.1253 20.5604 23.4448 20.8136 24.7178C21.0668 25.9908 21.6918 27.1601 22.6096 28.0779C23.5274 28.9957 24.6967 29.6207 25.9697 29.8739C27.2427 30.1271 28.5622 29.9972 29.7614 29.5005C30.9605 29.0038 31.9854 28.1626 32.7065 27.0834C33.4276 26.0042 33.8125 24.7354 33.8125 23.4375C33.8125 21.697 33.1211 20.0278 31.8904 18.7971C30.6597 17.5664 28.9905 16.875 27.25 16.875Z"
        fill="#4F8CF6" />
</svg>
