<svg fill="none" height="331" viewBox="0 0 375 331" width="375" xmlns="http://www.w3.org/2000/svg">
    <path
        d="M193.314 237.761L193.376 244.026L193.643 272.925C191.08 276.717 187.263 279.973 182.309 281.845C181.725 282.066 180.966 282.189 180.356 282.379C175.04 283.978 169.218 283.587 164.689 281.997L155.905 250.342L155.269 248.045C172.498 248.191 189.651 240.591 193.314 237.761Z"
        fill="#A0505A" />
    <path d="M193.314 237.761L193.423 249.997C181.985 256.187 160.594 253.003 155.917 250.337L155.281 248.041C172.498 248.191 189.65 240.591 193.314 237.761Z" fill="#73325A" />
    <path
        d="M193.82 272.817L202.256 303.771C204.72 311.843 200.958 320.153 193.796 322.86C193.474 322.981 193.147 323.091 192.804 323.194C184.996 325.489 176.577 320.5 174.002 312.061L165.756 285.004L164.866 282.107C166.935 282.962 169.178 283.52 171.508 283.73C174.43 283.99 177.48 283.724 180.514 282.837C181.129 282.659 181.723 282.462 182.308 282.241C184.003 281.601 185.59 280.783 187.03 279.829C187.073 279.799 187.129 279.765 187.172 279.735C189.858 277.929 192.073 275.632 193.663 273.053C193.729 272.974 193.783 272.899 193.82 272.817Z"
        fill="white" stroke="#FFCF2D" stroke-miterlimit="10" stroke-width="0.638" />
    <path
        d="M191.772 275.664L198.789 300.335C200.876 307.158 197.693 314.185 191.629 316.476C191.355 316.58 191.076 316.672 190.792 316.752C184.198 318.684 177.069 314.476 174.889 307.334L167.487 282.945"
        stroke="#FFCF2D" stroke-miterlimit="10" stroke-width="0.638" />
    <path
        d="M187.049 279.481C185.595 280.399 183.839 281.131 182.144 281.771C181.559 281.992 180.965 282.189 180.355 282.379C177.33 283.29 174.29 283.621 171.416 283.452L169.167 279.882C168.043 278.424 168.67 276.291 170.423 275.697L182.008 271.701C183.478 271.187 185.066 272.033 185.48 273.527L187.049 279.481Z"
        fill="#FFCF2D" />
    <path
        d="M186.884 279.407L192.3 298.108C193.38 301.724 191.021 305.589 187.653 306.206L187.394 306.277C182.594 307.15 177.389 303.77 176.079 298.535L171.412 283.439C174.297 283.604 177.325 283.278 180.35 282.367C180.965 282.189 181.554 281.98 182.139 281.759C183.839 281.131 185.43 280.325 186.884 279.407Z"
        fill="#FFCF2D" />
    <path
        d="M192.563 299.741L178.365 301.696C176.927 301.898 176.297 299.94 177.594 299.259L189.537 293.068C190.961 292.325 190.375 290.16 188.771 290.248L175.365 290.976C173.317 291.081 172.468 288.401 174.21 287.306L187.027 279.749C187.027 279.749 177.124 284.514 171.528 283.709"
        stroke="white" stroke-linecap="round" stroke-linejoin="round" stroke-miterlimit="10" stroke-width="0.638" />
    <path
        d="M192.603 161.301L193.313 237.761C189.649 240.592 170.741 249.646 148.325 248.009L137.101 172.93C134.528 161.899 140.513 150.662 151.124 146.652L162.153 142.484C176.007 137.236 191.09 146.541 192.603 161.301Z"
        fill="#4F8CF6" />
    <path d="M193.472 229.517C189.808 232.347 169.184 241.914 146.768 240.276" stroke="white" stroke-linecap="round" stroke-miterlimit="10" stroke-width="0.7656" />
    <path
        d="M226.699 226.66L225.88 232.003L220.498 265.805C215.29 270.542 208.407 274.166 201.423 275.25L200.526 275.33C197.074 275.87 193.127 275.316 190.054 274.186L189.94 238.831C189.94 238.831 189.952 238.827 189.964 238.822C194.463 238.636 209.621 237.164 226.699 226.66Z"
        fill="#A0505A" />
    <path d="M226.698 226.66L224.945 237.867C205.99 248.712 189.968 240.894 189.968 240.894L189.956 238.839C194.462 238.636 209.62 237.164 226.698 226.66Z" fill="#73325A" />
    <path
        d="M238.844 155.995L232.692 222.922C211.606 237.546 194.426 238.65 189.955 238.839L189.649 150.959C189.855 145.548 191.669 140.456 194.7 136.242C197.732 132.027 201.981 128.689 207.042 126.777C226.212 119.533 241.761 135.701 238.844 155.995Z"
        fill="#4F8CF6" />
    <path d="M233.484 215.666C212.397 230.291 194.74 231.575 190.27 231.764" stroke="white" stroke-linecap="round" stroke-miterlimit="10" stroke-width="0.7656" />
    <path d="M189.65 150.959L190.437 281.011" stroke="white" stroke-miterlimit="10" stroke-width="0.7656" />
    <path
        d="M220.29 265.98L220.283 268.779L220.164 300.374C220.721 310.981 212.914 320.356 203.373 321.492L202.837 321.517C196.14 322.315 189.462 316.409 189.398 308.985L190.322 274.971L190.343 274.268C192.373 275.056 194.564 275.51 196.84 275.578C198.053 275.61 199.293 275.537 200.546 275.35L201.443 275.27C205.14 274.692 208.722 273.488 212.054 271.765C215.037 270.202 217.819 268.25 220.29 265.98Z"
        fill="white" stroke="#FFCF2D" stroke-miterlimit="10" stroke-width="0.638" />
    <path d="M217.358 268.547L217.345 296.488C217.809 305.37 211.271 313.228 203.281 314.175L202.837 314.192C197.222 314.854 191.631 309.915 191.571 303.69L192.416 275.026" stroke="#FFCF2D"
        stroke-linecap="round" stroke-miterlimit="10" stroke-width="0.638" />
    <path
        d="M212.816 267.249L212.033 271.746C208.713 273.464 205.13 274.668 201.422 275.251L200.525 275.331C199.277 275.53 198.036 275.603 196.819 275.558L195.423 269.265C195.084 267.756 196.104 266.266 197.637 266.028L209.745 264.14C211.571 263.845 213.14 265.435 212.816 267.249Z"
        fill="#FFCF2D" />
    <path
        d="M212.033 271.746L212.01 271.864L212.001 288.809C212.279 294.201 208.32 298.957 203.465 299.537L203.195 299.544C199.786 299.945 196.388 296.946 196.368 293.175L196.88 275.794L196.83 275.554C198.043 275.587 199.284 275.513 200.537 275.327L201.434 275.247C205.135 274.68 208.713 273.465 212.033 271.746Z"
        fill="#FFCF2D" />
    <path
        d="M197.007 295.948L210.426 292.473C212.077 292.04 211.933 289.639 210.24 289.419L198.177 287.853C196.529 287.644 196.317 285.351 197.896 284.836L210.789 280.619C212.527 280.057 212.282 277.531 210.476 277.3L196.809 275.534C196.809 275.534 203.712 276.077 211.984 271.724"
        stroke="white" stroke-linecap="round" stroke-linejoin="round" stroke-miterlimit="10" stroke-width="0.638" />
    <path
        d="M415.263 102.13L5.96141 256.794C-3.28056 260.286 -12.4219 258.792 -14.4369 253.459L-28.3488 216.643C-30.3637 211.31 -24.495 204.144 -15.253 200.652L394.048 45.9885C403.29 42.4962 412.432 43.9905 414.447 49.323L428.358 86.1395C430.373 91.4719 424.505 98.6381 415.263 102.13Z"
        fill="white" stroke="#4F8CF6" stroke-miterlimit="10" stroke-width="0.7656" />
    <path d="M196.8 109.313L143.386 129.497L154.062 157.75L207.477 137.566L196.8 109.313Z" fill="white" />
    <path
        d="M198.944 133.902C199.557 133.67 199.866 132.985 199.635 132.372C199.403 131.759 198.718 131.45 198.105 131.682C197.492 131.913 197.183 132.598 197.415 133.211C197.646 133.824 198.331 134.133 198.944 133.902Z"
        fill="#4F8CF6" stroke="#4F8CF6" stroke-miterlimit="10" stroke-width="0.638" />
    <path
        d="M194.839 135.453C195.452 135.221 195.761 134.537 195.529 133.923C195.298 133.31 194.613 133.001 194 133.233C193.387 133.465 193.077 134.149 193.309 134.762C193.541 135.375 194.226 135.685 194.839 135.453Z"
        fill="white" stroke="#4F8CF6" stroke-miterlimit="10" stroke-width="0.638" />
    <path
        d="M190.744 137.001C191.357 136.769 191.666 136.084 191.435 135.471C191.203 134.858 190.518 134.549 189.905 134.781C189.292 135.012 188.983 135.697 189.214 136.31C189.446 136.923 190.131 137.233 190.744 137.001Z"
        fill="white" stroke="#4F8CF6" stroke-miterlimit="10" stroke-width="0.638" />
    <path
        d="M197.379 129.76C197.992 129.528 198.301 128.843 198.069 128.23C197.838 127.617 197.153 127.308 196.54 127.54C195.927 127.771 195.617 128.456 195.849 129.069C196.081 129.682 196.766 129.991 197.379 129.76Z"
        fill="#4F8CF6" stroke="#4F8CF6" stroke-miterlimit="10" stroke-width="0.638" />
    <path
        d="M193.273 131.311C193.886 131.079 194.195 130.394 193.964 129.781C193.732 129.168 193.047 128.859 192.434 129.091C191.821 129.322 191.512 130.007 191.744 130.62C191.975 131.233 192.66 131.543 193.273 131.311Z"
        fill="white" stroke="#4F8CF6" stroke-miterlimit="10" stroke-width="0.638" />
    <path
        d="M189.179 132.858C189.792 132.627 190.101 131.942 189.869 131.329C189.637 130.716 188.953 130.406 188.34 130.638C187.726 130.87 187.417 131.555 187.649 132.168C187.881 132.781 188.565 133.09 189.179 132.858Z"
        fill="white" stroke="#4F8CF6" stroke-miterlimit="10" stroke-width="0.638" />
    <path
        d="M194.258 121.5C194.871 121.268 195.18 120.583 194.948 119.97C194.717 119.357 194.032 119.048 193.419 119.28C192.806 119.511 192.496 120.196 192.728 120.809C192.96 121.422 193.645 121.732 194.258 121.5Z"
        fill="white" stroke="#4F8CF6" stroke-miterlimit="10" stroke-width="0.638" />
    <path
        d="M190.152 123.052C190.765 122.82 191.074 122.135 190.843 121.522C190.611 120.909 189.926 120.6 189.313 120.832C188.7 121.063 188.391 121.748 188.623 122.361C188.854 122.974 189.539 123.283 190.152 123.052Z"
        fill="#4F8CF6" stroke="#4F8CF6" stroke-miterlimit="10" stroke-width="0.638" />
    <path
        d="M186.057 124.599C186.67 124.367 186.98 123.682 186.748 123.069C186.516 122.456 185.832 122.147 185.218 122.378C184.605 122.61 184.296 123.295 184.528 123.908C184.76 124.521 185.444 124.83 186.057 124.599Z"
        fill="white" stroke="#4F8CF6" stroke-miterlimit="10" stroke-width="0.638" />
    <path
        d="M195.818 125.63C196.431 125.398 196.74 124.713 196.509 124.1C196.277 123.487 195.592 123.178 194.979 123.41C194.366 123.641 194.057 124.326 194.289 124.939C194.52 125.552 195.205 125.861 195.818 125.63Z"
        fill="white" stroke="#4F8CF6" stroke-miterlimit="10" stroke-width="0.638" />
    <path
        d="M191.713 127.181C192.326 126.949 192.635 126.265 192.403 125.652C192.172 125.038 191.487 124.729 190.874 124.961C190.261 125.193 189.951 125.877 190.183 126.49C190.415 127.104 191.1 127.413 191.713 127.181Z"
        fill="white" stroke="#4F8CF6" stroke-miterlimit="10" stroke-width="0.638" />
    <path
        d="M187.618 128.729C188.231 128.497 188.54 127.812 188.309 127.199C188.077 126.586 187.392 126.277 186.779 126.509C186.166 126.74 185.857 127.425 186.088 128.038C186.32 128.651 187.005 128.961 187.618 128.729Z"
        fill="#4F8CF6" stroke="#4F8CF6" stroke-miterlimit="10" stroke-width="0.638" />
    <path
        d="M163.471 137.852C164.085 137.621 164.394 136.936 164.162 136.323C163.93 135.71 163.246 135.401 162.633 135.632C162.019 135.864 161.71 136.549 161.942 137.162C162.174 137.775 162.858 138.084 163.471 137.852Z"
        fill="#4F8CF6" stroke="#4F8CF6" stroke-miterlimit="10" stroke-width="0.638" />
    <path
        d="M159.365 139.405C159.978 139.174 160.287 138.489 160.056 137.876C159.824 137.263 159.139 136.953 158.526 137.185C157.913 137.417 157.604 138.101 157.835 138.715C158.067 139.328 158.752 139.637 159.365 139.405Z"
        fill="white" stroke="#4F8CF6" stroke-miterlimit="10" stroke-width="0.638" />
    <path
        d="M152.149 132.691C152.762 132.46 153.071 131.775 152.84 131.162C152.608 130.549 151.923 130.239 151.31 130.471C150.697 130.703 150.388 131.388 150.62 132.001C150.851 132.614 151.536 132.923 152.149 132.691Z"
        fill="white" stroke="#4F8CF6" stroke-miterlimit="10" stroke-width="0.638" />
    <path
        d="M161.912 133.723C162.525 133.491 162.834 132.806 162.603 132.193C162.371 131.58 161.686 131.271 161.073 131.502C160.46 131.734 160.151 132.419 160.382 133.032C160.614 133.645 161.299 133.954 161.912 133.723Z"
        fill="white" stroke="#4F8CF6" stroke-miterlimit="10" stroke-width="0.638" />
    <path
        d="M157.805 135.274C158.419 135.042 158.728 134.357 158.496 133.744C158.264 133.131 157.58 132.822 156.967 133.054C156.353 133.285 156.044 133.97 156.276 134.583C156.508 135.196 157.192 135.505 157.805 135.274Z"
        fill="white" stroke="#4F8CF6" stroke-miterlimit="10" stroke-width="0.638" />
    <path
        d="M153.711 136.821C154.324 136.59 154.633 135.905 154.401 135.292C154.17 134.679 153.485 134.369 152.872 134.601C152.259 134.833 151.95 135.518 152.181 136.131C152.413 136.744 153.098 137.053 153.711 136.821Z"
        fill="#4F8CF6" stroke="#4F8CF6" stroke-miterlimit="10" stroke-width="0.638" />
    <path
        d="M180.55 136.119C181.163 135.887 181.472 135.202 181.24 134.589C181.009 133.976 180.324 133.667 179.711 133.898C179.098 134.13 178.788 134.815 179.02 135.428C179.252 136.041 179.937 136.35 180.55 136.119Z"
        fill="white" stroke="#4F8CF6" stroke-miterlimit="10" stroke-width="0.638" />
    <path
        d="M176.443 137.67C177.056 137.439 177.365 136.754 177.134 136.141C176.902 135.528 176.217 135.218 175.604 135.45C174.991 135.682 174.682 136.367 174.914 136.98C175.145 137.593 175.83 137.902 176.443 137.67Z"
        fill="white" stroke="#4F8CF6" stroke-miterlimit="10" stroke-width="0.638" />
    <path
        d="M172.348 139.218C172.962 138.986 173.271 138.301 173.039 137.688C172.807 137.075 172.123 136.766 171.509 136.998C170.896 137.229 170.587 137.914 170.819 138.527C171.051 139.14 171.735 139.449 172.348 139.218Z"
        fill="#4F8CF6" stroke="#4F8CF6" stroke-miterlimit="10" stroke-width="0.638" />
    <path
        d="M177.428 127.859C178.042 127.627 178.351 126.942 178.119 126.329C177.887 125.716 177.203 125.407 176.59 125.639C175.976 125.87 175.667 126.555 175.899 127.168C176.131 127.781 176.815 128.09 177.428 127.859Z"
        fill="#4F8CF6" stroke="#4F8CF6" stroke-miterlimit="10" stroke-width="0.638" />
    <path
        d="M173.322 129.411C173.935 129.179 174.244 128.494 174.013 127.881C173.781 127.268 173.096 126.959 172.483 127.19C171.87 127.422 171.561 128.107 171.793 128.72C172.024 129.333 172.709 129.642 173.322 129.411Z"
        fill="white" stroke="#4F8CF6" stroke-miterlimit="10" stroke-width="0.638" />
    <path
        d="M169.227 130.958C169.84 130.726 170.15 130.041 169.918 129.428C169.686 128.815 169.001 128.506 168.388 128.738C167.775 128.969 167.466 129.654 167.698 130.267C167.929 130.88 168.614 131.19 169.227 130.958Z"
        fill="white" stroke="#4F8CF6" stroke-miterlimit="10" stroke-width="0.638" />
    <path
        d="M178.989 131.989C179.602 131.757 179.911 131.072 179.68 130.459C179.448 129.846 178.763 129.537 178.15 129.769C177.537 130 177.228 130.685 177.46 131.298C177.691 131.911 178.376 132.22 178.989 131.989Z"
        fill="white" stroke="#4F8CF6" stroke-miterlimit="10" stroke-width="0.638" />
    <path
        d="M174.883 133.54C175.496 133.309 175.805 132.624 175.573 132.011C175.342 131.398 174.657 131.089 174.044 131.32C173.431 131.552 173.121 132.237 173.353 132.85C173.585 133.463 174.27 133.772 174.883 133.54Z"
        fill="#4F8CF6" stroke="#4F8CF6" stroke-miterlimit="10" stroke-width="0.638" />
    <path
        d="M170.788 135.088C171.401 134.857 171.71 134.172 171.478 133.559C171.247 132.946 170.562 132.636 169.949 132.868C169.336 133.1 169.027 133.785 169.258 134.398C169.49 135.011 170.175 135.32 170.788 135.088Z"
        fill="white" stroke="#4F8CF6" stroke-miterlimit="10" stroke-width="0.638" />
    <path
        d="M235.226 102.131L180.141 122.946L177.762 116.507L144.579 129.045L124.233 104.405L121.09 127.35L159.683 141.221L152.874 165.4L110.053 156.332C102.273 154.621 95.8923 149.107 93.0778 141.659C91.6706 137.935 91.2243 133.902 91.8073 129.958L96.9011 94.7771C99.0429 80.0134 109.027 67.5927 122.968 62.3246L174.64 42.7992C183.234 39.5517 192.87 40.6849 200.476 45.8316L238.709 71.2421C250.585 79.0991 248.547 97.0973 235.226 102.131Z"
        fill="white" stroke="#4F8CF6" stroke-miterlimit="10" stroke-width="0.7656" />
    <path
        d="M161.727 154.608C159.72 161.641 155.885 166.691 153.149 165.911C150.412 165.131 149.823 158.806 151.818 151.777C153.826 144.744 157.273 140.113 160.009 140.893C162.746 141.673 163.727 147.591 161.727 154.608Z"
        fill="#4F8CF6" />
    <path d="M127.438 60.6904L152.626 77.3492L159.225 48.6793L127.438 60.6904Z" stroke="#4F8CF6" stroke-miterlimit="10" stroke-width="0.7656" />
    <path
        d="M155.958 85.6249C156.914 85.2637 157.396 84.196 157.034 83.2401C156.673 82.2843 155.606 81.8022 154.65 82.1634C153.694 82.5246 153.212 83.5923 153.573 84.5481C153.934 85.504 155.002 85.9861 155.958 85.6249Z"
        stroke="#4F8CF6" stroke-miterlimit="10" stroke-width="0.7656" />
    <path
        d="M160.107 96.6063C161.063 96.2451 161.545 95.1774 161.184 94.2216C160.823 93.2657 159.755 92.7836 158.799 93.1448C157.843 93.506 157.361 94.5737 157.722 95.5296C158.084 96.4855 159.151 96.9675 160.107 96.6063Z"
        stroke="#4F8CF6" stroke-miterlimit="10" stroke-width="0.7656" />
    <path d="M192.232 77.0465L204.745 86.2998L171.563 98.8387L180.764 123.189" stroke="#4F8CF6" stroke-miterlimit="10" stroke-width="0.7656" />
    <path d="M204.745 86.2998L213.447 83.0117" stroke="#4F8CF6" stroke-miterlimit="10" stroke-width="0.7656" />
    <path
        d="M180.764 123.188C183.427 122.182 183.492 115.825 180.909 108.988C178.325 102.152 174.072 97.4263 171.409 98.4327C168.746 99.4391 168.681 105.797 171.264 112.633C173.847 119.469 178.1 124.195 180.764 123.188Z"
        fill="#4F8CF6" />
    <path d="M176.351 97.0703C179.012 96.0645 183.193 100.596 185.683 107.184C188.173 113.773 188.033 119.937 185.371 120.943" stroke="#4F8CF6" stroke-miterlimit="10" stroke-width="0.7656" />
    <path d="M148.358 164.461C145.621 163.681 145.032 157.356 147.027 150.327C149.035 143.294 152.243 138.753 154.98 139.533" stroke="#4F8CF6" stroke-miterlimit="10" stroke-width="0.7656" />
    <path
        d="M123.819 50.7498C119.455 38.9491 126.056 32.772 139.287 28.9454C153.552 24.8234 155.081 46.0161 163.007 43.7441C166.329 42.7889 168.626 37.7472 172.383 32.89C175.389 28.644 179.647 25.2208 184.887 23.2407C198.864 17.9591 214.489 25.0137 219.77 38.991C222.201 45.4247 221.555 52.7756 219.291 58.7327C219.291 58.7327 196.434 43.4031 189.901 43.6212C177.052 44.0567 177.215 55.4259 169.9 59.9635C168.938 60.5588 167.851 61.038 166.579 61.3548C154.848 64.3145 149.992 44.9656 149.992 44.9656C146.628 44.8725 144.855 42.0917 144.057 40.306C143.783 39.4002 143.526 38.8288 143.526 38.8288C143.526 38.8288 143.68 39.4527 144.057 40.306C145.117 43.8339 146.124 52.8518 133.301 54.3282L134.812 58.3268C143.963 82.5455 146.134 87.0995 143.529 95.0408C143.143 96.2231 141.038 105.38 151.257 106.034C164.422 106.87 161.541 123.25 161.541 123.25L137.752 132.239C137.752 132.239 122.684 135.068 116.61 122.713C107.932 105.054 129.056 91.466 131.84 89.7729C125.677 91.0787 117.814 87.4889 115.184 80.53C112.852 74.359 115.62 67.3522 119.84 63.7932C119.852 63.7887 119.852 63.7887 119.86 63.7722C119.985 63.6703 120.11 63.5685 120.235 63.4666C123.547 60.7148 125.26 56.7663 124.559 53.0344L123.819 50.7498Z"
        fill="#FFCF2D" />
    <path
        d="M145.091 42.8618C145.079 42.8663 145.079 42.8663 145.091 42.8618C144.924 42.9249 144.739 42.8313 144.68 42.6762L142.471 36.5406C142.408 36.3735 142.489 36.1926 142.657 36.1295C142.824 36.0663 143.009 36.16 143.068 36.3151L145.277 42.4506C145.328 42.6223 145.247 42.8032 145.091 42.8618Z"
        fill="#A0505A" />
    <path
        d="M134.133 54.9415C134.086 54.9595 134.033 54.9656 133.977 54.9598C130.515 54.5354 129.32 53.2137 129.262 53.1676C129.144 53.0349 129.164 52.8363 129.297 52.718C129.429 52.5996 129.628 52.62 129.742 52.7407C129.763 52.7601 130.875 53.9356 134.053 54.3309C134.223 54.3484 134.355 54.5168 134.337 54.6871C134.326 54.8006 134.241 54.9009 134.133 54.9415Z"
        fill="#A0505A" />
    <path
        d="M170.308 29.4185C172.285 28.6712 173.283 26.4622 172.535 24.4845C171.788 22.5069 169.579 21.5095 167.601 22.2568C165.624 23.0041 164.626 25.2131 165.374 27.1907C166.121 29.1684 168.33 30.1658 170.308 29.4185Z"
        fill="#FFCF2D" />
    <path
        d="M149.557 101.97C151.146 101.37 151.947 99.5951 151.347 98.0063C150.747 96.4176 148.972 95.6164 147.383 96.2167C145.795 96.8171 144.994 98.5916 145.594 100.18C146.194 101.769 147.969 102.57 149.557 101.97Z"
        fill="#FFCF2D" />
    <path
        d="M182.949 135.54L183.758 137.717C183.83 137.908 183.854 138.117 183.846 138.311L183.02 151.936C182.88 153.912 181.603 155.623 179.753 156.322L168.569 160.548C165.776 161.603 162.71 161.684 159.864 160.795L159.353 160.634L150.712 157.911C150.848 156.031 151.218 153.941 151.835 151.785C153.004 147.66 154.827 144.216 156.666 142.225L172.72 136.158C175.075 138.528 171.788 142.39 171.788 142.39L179.045 139.648L180.593 135.803C180.994 134.805 182.345 134.663 182.949 135.54Z"
        fill="#A0505A" />
    <path d="M182.909 147.926C182.769 149.903 181.492 151.613 179.642 152.312L170.225 155.871" stroke="#73325A" stroke-linecap="round" stroke-miterlimit="10" stroke-width="0.638" />
    <path d="M183.163 143.615C183.023 145.592 181.746 147.302 179.896 148.001L170.478 151.56" stroke="#73325A" stroke-linecap="round" stroke-miterlimit="10" stroke-width="0.638" />
    <path d="M183.39 138.837C183.25 140.814 181.973 142.524 180.123 143.223L170.705 146.782" stroke="#73325A" stroke-linecap="round" stroke-miterlimit="10" stroke-width="0.638" />
    <path
        d="M161.517 154.414C161.109 156.546 160.226 158.939 159.353 160.633L159.336 160.626L150.696 157.903C150.831 156.024 151.201 153.933 151.818 151.777C152.988 147.652 154.81 144.208 156.649 142.217L160.099 140.913C161.433 143.506 162.703 148.237 161.517 154.414Z"
        fill="#73325A" />
    <path d="M159.049 113.265C159.049 113.265 159 95.5921 161.361 95.0545C163.706 94.5094 161.66 110.969 161.66 110.969L159.049 113.265Z" fill="#4F8CF6" />
    <path
        d="M180.909 108.989C183.412 115.614 183.421 121.776 181.005 123.071C180.926 123.114 180.843 123.146 180.759 123.177L157.125 132.108C156.409 132.379 155.62 132.022 155.349 131.306L152.499 123.762C151.691 121.626 152.283 119.22 153.992 117.715L162.471 110.227C163.24 109.555 164.127 109.015 165.082 108.654L178.307 103.657C179.261 105.206 180.16 107.008 180.909 108.989Z"
        fill="#A0505A" />
    <path d="M161.7 116.71L155.297 122.363C154.01 123.504 153.565 125.323 154.169 126.922" stroke="#73325A" stroke-linecap="round" stroke-miterlimit="10" stroke-width="0.638" />
    <path d="M163.405 121.223L157.002 126.875C155.715 128.016 155.27 129.835 155.874 131.434" stroke="#73325A" stroke-linecap="round" stroke-miterlimit="10" stroke-width="0.638" />
    <path d="M164.591 125.589L158.188 131.241" stroke="#73325A" stroke-linecap="round" stroke-miterlimit="10" stroke-width="0.638" />
    <path
        d="M180.907 108.989C183.41 115.613 183.42 121.775 181.004 123.07C180.925 123.114 180.841 123.145 180.758 123.177C178.096 124.183 173.843 119.461 171.258 112.621C170.568 110.795 170.058 108.614 169.731 106.883L178.241 103.667C179.158 105.189 180.217 107.163 180.907 108.989Z"
        fill="#73325A" />
    <path
        d="M154.902 46.1525C155.163 46.8448 155.173 47.5915 154.973 48.2536C154.765 48.9321 154.349 49.5261 153.736 49.9622L152.251 51.0143L152.946 52.8525C154.624 57.2928 152.388 62.2432 147.948 63.9211L146.361 64.521C141.932 66.1943 136.998 63.9666 135.305 59.5592L133.321 54.3072C146.149 52.8427 145.138 43.8129 144.077 40.285C144.831 41.9916 146.481 44.5876 149.55 44.9144L149.959 44.6237C151.712 43.4155 154.148 44.1591 154.902 46.1525Z"
        fill="#A0505A" />
    <path d="M145.505 51.3942C145.505 51.3942 147.85 50.2354 149.714 50.9087" stroke="#73325A" stroke-linecap="round" stroke-miterlimit="10" stroke-width="0.638" />
    <path d="M136.309 55.647C136.309 55.647 137.734 54.0036 140.073 54.1291C141.465 54.2033 143.317 56.7226 144.748 60.4377" stroke="#73325A" stroke-linecap="round" stroke-miterlimit="10"
        stroke-width="0.638" />
    <path
        d="M139.976 58.4212C140.233 58.324 140.29 57.8445 140.103 57.35C139.916 56.8556 139.557 56.5336 139.3 56.6307C139.042 56.7279 138.985 57.2074 139.172 57.7019C139.359 58.1963 139.719 58.5183 139.976 58.4212Z"
        fill="#73325A" />
    <path
        d="M148.642 55.1468C148.899 55.0496 148.956 54.5701 148.769 54.0756C148.582 53.5812 148.223 53.2592 147.966 53.3563C147.708 53.4535 147.651 53.933 147.838 54.4274C148.025 54.9219 148.385 55.2439 148.642 55.1468Z"
        fill="#73325A" />
    <path d="M151.865 48.6226C151.472 47.5842 151.862 46.4138 152.795 45.8156" stroke="#73325A" stroke-linecap="round" stroke-miterlimit="10" stroke-width="0.638" />
</svg>
